<svg xmlns="http://www.w3.org/2000/svg" viewBox="0 0 302.18 84.71"><defs><style>.cls-1{fill:#fff;}</style></defs><title>Asset 3</title><g id="Layer_2" data-name="Layer 2"><g id="Layer_1-2" data-name="Layer 1"><path class="cls-1" d="M32.85,8.31A145.82,145.82,0,0,0,0,25.61c1.94,4.71,4.25,10.1,7,16.22C17.19,64.48,34.74,76.45,54.66,76.58,64.11,68.89,69,58.63,71.27,48.13H56.87l-2,12.54a3.31,3.31,0,0,1-3.15,2.71h-9a2.27,2.27,0,0,1-2.3-2.71l2-12.54H29.85a2.27,2.27,0,0,1-2.29-2.73l1.4-9a3.32,3.32,0,0,1,3.16-2.72H44.64l2-12.54a3.3,3.3,0,0,1,3.14-2.71h9a2.26,2.26,0,0,1,2.29,2.71l-2,12.54H72.94C73.36,16.83,69.08,2.22,68.56,0A141,141,0,0,0,32.85,8.31Z"/><path class="cls-1" d="M166.36,74.09a3.07,3.07,0,0,0-.61.07,2.4,2.4,0,0,0-.74.3,2.32,2.32,0,0,0-1,1.73l-1,6.24a3.83,3.83,0,0,0,0,.47,1.51,1.51,0,0,0,1.29,1.63,1.87,1.87,0,0,0,.55.09l2-.07c1.21,0,2.08-.1,2.63-.17l.27-1.65h-4.23l-.11,0a.19.19,0,0,1-.1,0,.28.28,0,0,1-.09-.07c-.12-.08-.15-.28-.1-.59l.27-1.66,4.09-.14.27-1.65-4-.15.25-1.6a1.49,1.49,0,0,1,.17-.55.78.78,0,0,1,.69-.25h4l.25-1.67c-.61-.08-1.5-.14-2.69-.17ZM277.47,57.34h9l1.12,6.18h5.45l-4.65-27.95h-6.08l-13.87,28h5.93Zm6.95-14.9L286,52.6h-6.38Zm-127.3,32.1a4.07,4.07,0,0,0-.78.71,5.18,5.18,0,0,0-.59,1,10.33,10.33,0,0,0-.43,1.26c-.11.45-.22,1-.31,1.56a10.39,10.39,0,0,0-.16,1.91,5.75,5.75,0,0,0,.35,2,2.45,2.45,0,0,0,.92,1.22,3,3,0,0,0,1.62.46h.83c.4,0,.86,0,1.37-.07a7.56,7.56,0,0,0,1.54-.33l.23-1.58q-1.77.12-2.43.12h-.81a1.41,1.41,0,0,1-1.45-.88,3.22,3.22,0,0,1-.16-1.07,10.86,10.86,0,0,1,.16-1.61,12.27,12.27,0,0,1,.42-1.76,3.31,3.31,0,0,1,.25-.63c.1-.17.2-.32.28-.44a1,1,0,0,1,.3-.29l.3-.17a.86.86,0,0,1,.33-.1l.32,0h.51a25,25,0,0,1,3,.23l.24-1.56a11.64,11.64,0,0,0-3.58-.52A4.11,4.11,0,0,0,157.12,74.54Zm-7.72,2.95a4.13,4.13,0,0,1,.25-.63c.1-.17.2-.32.28-.44a1,1,0,0,1,.3-.29c.12-.07.21-.13.3-.17a.86.86,0,0,1,.33-.1l.32,0h.51a25.26,25.26,0,0,1,3,.23l.24-1.56a11.69,11.69,0,0,0-3.58-.52,4.17,4.17,0,0,0-2.3.57,4.39,4.39,0,0,0-.78.71,4.7,4.7,0,0,0-.58,1,7.76,7.76,0,0,0-.42,1.26c-.12.45-.23,1-.34,1.56a12.6,12.6,0,0,0-.14,1.91,6,6,0,0,0,.34,2,2.47,2.47,0,0,0,.93,1.22,3,3,0,0,0,1.62.46h.83c.4,0,.85,0,1.37-.07a7.61,7.61,0,0,0,1.53-.33l.25-1.58c-1.2.08-2,.12-2.44.12h-.82a1.42,1.42,0,0,1-1.45-.88,3.24,3.24,0,0,1-.15-1.07,10.67,10.67,0,0,1,.15-1.61A12.25,12.25,0,0,1,149.4,77.49Zm-7.68-3.4-5.2,10.49h2.21l1.15-2.32h3.4l.42,2.32h2.05L144,74.09Zm-1,6.39,1.8-3.82.59,3.82ZM120,74.09l-3.32,4.38h-.79l.7-4.38h-1.93L113,84.58H115l.68-4.33h1l1.87,4.33h2.29l-2.33-5.09,4-5.4Zm22.66-20,1.69,9.43h8.32l-7.1-42.6h-9.25l-21.13,42.6h9l4.65-9.43Zm-3.2-22.69,2.39,15.48h-9.72Zm-5.91,48.74h-1.51a3.76,3.76,0,0,1-.28.88,3.94,3.94,0,0,1-.49.78l-1.39-2,.65-.39a4.28,4.28,0,0,0,1.06-.88,2.49,2.49,0,0,0,.52-1.13,1.62,1.62,0,0,0-.42-1.48,2,2,0,0,0-1.59-.63,3.36,3.36,0,0,0-2.06.63,2.7,2.7,0,0,0-1,1.74,2.31,2.31,0,0,0,0,1,4.64,4.64,0,0,0,.49,1.06,7.49,7.49,0,0,0-1.52,1.1,2.24,2.24,0,0,0-.64,1.28A2,2,0,0,0,126,84a3,3,0,0,0,2.15.72,4.86,4.86,0,0,0,1.27-.16,5.93,5.93,0,0,0,1.22-.5l.39.53h2.3L132.15,83a4.54,4.54,0,0,0,.92-1.26A6.13,6.13,0,0,0,133.57,80.14ZM129.2,77a.91.91,0,0,1,.66-.28.63.63,0,0,1,.55.25.71.71,0,0,1,.13.56,1.41,1.41,0,0,1-.22.52,1.65,1.65,0,0,1-.57.46l-.56.31a2.63,2.63,0,0,1-.3-.61,1.06,1.06,0,0,1,0-.53A1.3,1.3,0,0,1,129.2,77Zm-.08,6.2a2.61,2.61,0,0,1-.67.08,1,1,0,0,1-.82-.35,1.08,1.08,0,0,1-.17-.92,2,2,0,0,1,.21-.57,2.21,2.21,0,0,1,.51-.58l.1-.07L129.82,83A4.45,4.45,0,0,1,129.12,83.22Zm-21.44-5.73a4.12,4.12,0,0,1,.26-.63c.1-.17.19-.32.27-.44a1.18,1.18,0,0,1,.3-.29l.3-.17a.86.86,0,0,1,.34-.1l.31,0H110a25,25,0,0,1,3,.23l.25-1.56a11.66,11.66,0,0,0-3.59-.52,4.19,4.19,0,0,0-2.3.57A3.68,3.68,0,0,0,106,76.25a7.77,7.77,0,0,0-.43,1.26q-.18.67-.33,1.56a11.38,11.38,0,0,0-.15,1.91,6.24,6.24,0,0,0,.34,2,2.47,2.47,0,0,0,.93,1.22,3,3,0,0,0,1.63.46h.82c.4,0,.86,0,1.37-.07a7.56,7.56,0,0,0,1.54-.33l.24-1.58c-1.18.08-2,.12-2.44.12h-.81a1.42,1.42,0,0,1-1.45-.88,3,3,0,0,1-.16-1.07,9.65,9.65,0,0,1,.16-1.61A12.27,12.27,0,0,1,107.68,77.49Zm-4.44-2.8a2.19,2.19,0,0,0-.74-.41,4.51,4.51,0,0,0-.88-.21,7.16,7.16,0,0,0-1-.06l-.85,0c-.21,0-.46,0-.73.07a4.57,4.57,0,0,0-.68.16,5,5,0,0,0-.63.3,2,2,0,0,0-.57.46,7,7,0,0,0-.5.66,3.89,3.89,0,0,0-.44.89q-.18.5-.36,1.17c-.11.44-.21,1-.31,1.56a9,9,0,0,0-.15,1.36c0,.3,0,.57,0,.83a4.39,4.39,0,0,0,.11.88A2.6,2.6,0,0,0,96.42,84a2.25,2.25,0,0,0,.74.38,4.75,4.75,0,0,0,.89.2c.29,0,.73,0,1.31,0a6.93,6.93,0,0,0,1.66-.18,2.47,2.47,0,0,0,.84-.34,4,4,0,0,0,.71-.58,3.77,3.77,0,0,0,.62-.9,12,12,0,0,0,.48-1.29,14.92,14.92,0,0,0,.37-1.76,13.29,13.29,0,0,0,.16-1.46c0-.29,0-.58,0-.85a5.26,5.26,0,0,0-.1-.89A2.74,2.74,0,0,0,103.24,74.69ZM102,79.4c-.26,1.63-.66,2.63-1.21,3a2.69,2.69,0,0,1-1.52.38,2.36,2.36,0,0,1-1.48-.36,1.5,1.5,0,0,1-.36-1.17,11.94,11.94,0,0,1,.34-2.82,5.55,5.55,0,0,1,.65-1.83,1.87,1.87,0,0,1,.37-.41,1.12,1.12,0,0,1,.45-.22,3.52,3.52,0,0,1,.51-.1l.68,0a3.92,3.92,0,0,1,.75.06,1.56,1.56,0,0,1,.56.25.91.91,0,0,1,.35.55,4.27,4.27,0,0,1,.09,1A11.89,11.89,0,0,1,102,79.4ZM90.45,82.64c-.19-.07-.25-.29-.2-.66l1.25-7.89h-2l-1.36,8.45a3.93,3.93,0,0,0,0,.46,1.46,1.46,0,0,0,.47,1.14,2,2,0,0,0,1.42.44h4.33l.29-1.85H91A1.5,1.5,0,0,1,90.45,82.64ZM94.2,63.52h17.58L113,56H98.33A6.2,6.2,0,0,1,96,55.67c-.77-.31-1-1.2-.8-2.68l5-32.07H92.16L86.63,55.26a17.75,17.75,0,0,0-.11,1.86,6,6,0,0,0,1.92,4.63Q90.36,63.52,94.2,63.52ZM207.71,74.69a2.35,2.35,0,0,0-.73-.41,4.78,4.78,0,0,0-.89-.21,7.16,7.16,0,0,0-1-.06l-.85,0a7.13,7.13,0,0,0-.73.07,4.28,4.28,0,0,0-.68.16,4.44,4.44,0,0,0-.63.3,1.73,1.73,0,0,0-.57.46,5.65,5.65,0,0,0-.5.66,3.89,3.89,0,0,0-.44.89,9.15,9.15,0,0,0-.36,1.17,13.85,13.85,0,0,0-.31,1.56,9,9,0,0,0-.15,1.36c0,.3,0,.57,0,.83a4.31,4.31,0,0,0,.1.88,2.64,2.64,0,0,0,.88,1.64,2.3,2.3,0,0,0,.75.38,4.83,4.83,0,0,0,.88.2c.29,0,.73,0,1.32,0a6.93,6.93,0,0,0,1.66-.18,2.64,2.64,0,0,0,.84-.34,4,4,0,0,0,.7-.58,3.5,3.5,0,0,0,.62-.9,8.79,8.79,0,0,0,.49-1.29,17.26,17.26,0,0,0,.37-1.76,13.29,13.29,0,0,0,.16-1.46c0-.29,0-.58,0-.85a4.48,4.48,0,0,0-.11-.89A2.68,2.68,0,0,0,207.71,74.69Zm-1.22,4.71c-.25,1.63-.66,2.63-1.22,3a2.67,2.67,0,0,1-1.52.38,2.33,2.33,0,0,1-1.47-.36,1.5,1.5,0,0,1-.36-1.17,12.47,12.47,0,0,1,.33-2.82,5.73,5.73,0,0,1,.66-1.83,1.87,1.87,0,0,1,.37-.41,1.07,1.07,0,0,1,.44-.22,3.8,3.8,0,0,1,.51-.1l.69,0a3.92,3.92,0,0,1,.75.06,1.64,1.64,0,0,1,.56.25,1,1,0,0,1,.35.55,5,5,0,0,1,.08,1A10.37,10.37,0,0,1,206.49,79.4ZM261.66,74a5,5,0,0,0-1.72.26,2.57,2.57,0,0,0-1.55,2.23l-.14,1.09a3.27,3.27,0,0,0-.05.53,4.13,4.13,0,0,0,.05.58,2,2,0,0,0,.6,1.16,2.4,2.4,0,0,0,1.77.54h1.44a1.16,1.16,0,0,1,.6.13.32.32,0,0,1,.21.26,1.32,1.32,0,0,1,0,.27,2.23,2.23,0,0,1,0,.33l-.08.56c-.1.6-.59.91-1.45.91a31.42,31.42,0,0,1-3.54-.16l-.25,1.58a13.28,13.28,0,0,0,3.82.42,7.08,7.08,0,0,0,1.2-.08,2.45,2.45,0,0,0,2.22-2.49l.09-1a2.37,2.37,0,0,0,0-.49,4.82,4.82,0,0,0-.07-.74,1.87,1.87,0,0,0-.6-1.07,2.07,2.07,0,0,0-1.46-.48h-1.5a2.72,2.72,0,0,1-.62,0,.29.29,0,0,1-.2-.1l-.14-.17a.43.43,0,0,1,0-.28q0-.16,0-.39l.07-.53c.08-.44.22-.73.43-.84a2.16,2.16,0,0,1,1-.17h.8c.48,0,1.4.05,2.75.14l.26-1.58A13.49,13.49,0,0,0,262,74ZM260,62.65l.52-3.44a1,1,0,0,0,.05-.27c0-.46-.29-.69-.84-.69h-3.29a1,1,0,0,0-1.07,1l-.54,3.44a.67.67,0,0,0,.16.62.82.82,0,0,0,.65.25h3.28A1,1,0,0,0,260,62.65ZM241.53,43a3,3,0,0,1,1.15-2.25,5.62,5.62,0,0,1,2.56-.46h2.14c1.3,0,3.74.14,7.34.39l.68-4.2a34.89,34.89,0,0,0-9.63-1.11h-.83a13.39,13.39,0,0,0-4.59.68q-3.39,1.3-4.13,6l-.38,2.9a9.78,9.78,0,0,0-.11,1.41,12.64,12.64,0,0,0,.11,1.53,5.35,5.35,0,0,0,1.62,3.09c.93,1,2.5,1.46,4.68,1.46H246a3.24,3.24,0,0,1,1.6.31,1.06,1.06,0,0,1,.57.71c0,.26,0,.5,0,.73a5.45,5.45,0,0,1-.08.88l-.23,1.49q-.37,2.4-3.86,2.4a81.07,81.07,0,0,1-9.43-.42l-.65,4.2a34.34,34.34,0,0,0,10.16,1.15,20,20,0,0,0,3.21-.23q5.43-.84,5.92-6.64l.23-2.53a6.47,6.47,0,0,0,.11-1.31,12.93,12.93,0,0,0-.19-2,4.87,4.87,0,0,0-1.6-2.87,5.54,5.54,0,0,0-3.9-1.25h-4a6.6,6.6,0,0,1-1.64-.16,1,1,0,0,1-.57-.24,3.77,3.77,0,0,1-.35-.48,1.1,1.1,0,0,1-.13-.75c0-.29.07-.64.1-1Zm36.9,31.12L275,81.88l-.72-4.9,1.34-2.89h-2.16L270,81.84l-1.07-7.75h-2.1l1.62,10.49h2.38l2-4.32.66,4.32h2.26l4.81-10.49Zm1.95,10.49h2l1.66-10.49h-2Zm21-26.33h-3.29a1,1,0,0,0-1.07,1l-.54,3.44a.65.65,0,0,0,.16.62.81.81,0,0,0,.65.25h3.28a1,1,0,0,0,1.07-.87l.53-3.44a.93.93,0,0,0,0-.27C302.18,58.48,301.9,58.25,301.35,58.25Zm-52.8,24.39c-.19-.07-.25-.29-.2-.66l1.25-7.89h-2l-1.36,8.45a3.93,3.93,0,0,0,0,.46,1.49,1.49,0,0,0,.47,1.14,2,2,0,0,0,1.42.44h4.33l.29-1.85h-3.6A1.46,1.46,0,0,1,248.55,82.64ZM296.7,74a4.94,4.94,0,0,0-1.72.26,2.57,2.57,0,0,0-1.55,2.23l-.15,1.09a4.91,4.91,0,0,0,0,.53c0,.18,0,.37,0,.58a2.13,2.13,0,0,0,.61,1.16,2.39,2.39,0,0,0,1.76.54h1.45a1.16,1.16,0,0,1,.6.13.38.38,0,0,1,.22.26,2.62,2.62,0,0,1,0,.27,2.23,2.23,0,0,1,0,.33l-.08.56c-.1.6-.58.91-1.45.91a31.29,31.29,0,0,1-3.54-.16l-.25,1.58a13.33,13.33,0,0,0,3.82.42,7.08,7.08,0,0,0,1.2-.08,2.45,2.45,0,0,0,2.22-2.49l.09-1a2.37,2.37,0,0,0,0-.49,4.82,4.82,0,0,0-.07-.74,1.87,1.87,0,0,0-.6-1.07,2.07,2.07,0,0,0-1.46-.48h-1.49a2.61,2.61,0,0,1-.62,0c-.11,0-.18,0-.21-.1a.85.85,0,0,1-.14-.17.43.43,0,0,1,0-.28q0-.16,0-.39l.07-.53c.08-.44.22-.73.43-.84a2.14,2.14,0,0,1,1-.17h.8c.49,0,1.41.05,2.76.14l.25-1.58A13.36,13.36,0,0,0,297,74Zm-8.3,0a4.94,4.94,0,0,0-1.72.26,2.55,2.55,0,0,0-1.55,2.23L285,77.58a3.23,3.23,0,0,0,0,.53,4,4,0,0,0,0,.58,2,2,0,0,0,.61,1.16,2.4,2.4,0,0,0,1.77.54h1.44a1.16,1.16,0,0,1,.6.13.38.38,0,0,1,.22.26c0,.1,0,.19,0,.27a1.47,1.47,0,0,1,0,.33l-.07.56c-.1.6-.59.91-1.46.91a31.35,31.35,0,0,1-3.53-.16l-.25,1.58a13.28,13.28,0,0,0,3.82.42,7.16,7.16,0,0,0,1.2-.08,2.45,2.45,0,0,0,2.22-2.49l.09-1a2.37,2.37,0,0,0,0-.49,4.82,4.82,0,0,0-.07-.74,1.83,1.83,0,0,0-.61-1.07,2.06,2.06,0,0,0-1.45-.48H288a2.52,2.52,0,0,1-.61,0,.35.35,0,0,1-.22-.1.83.83,0,0,1-.12-.17.38.38,0,0,1-.06-.28c0-.11,0-.24,0-.39l.07-.53a1.1,1.1,0,0,1,.43-.84,2.17,2.17,0,0,1,1-.17h.8c.49,0,1.41.05,2.76.14l.25-1.58a13.38,13.38,0,0,0-3.61-.41Zm-43.9.69a2.24,2.24,0,0,0-.75-.41,4.25,4.25,0,0,0-.87-.21,7.27,7.27,0,0,0-1-.06l-.85,0a7.13,7.13,0,0,0-.73.07,4.43,4.43,0,0,0-.69.16,4.94,4.94,0,0,0-.62.3,2.14,2.14,0,0,0-.58.46,7.09,7.09,0,0,0-.49.66,4.35,4.35,0,0,0-.45.89,11.26,11.26,0,0,0-.35,1.17c-.12.44-.22,1-.32,1.56a12.74,12.74,0,0,0-.15,1.36v.83a4.31,4.31,0,0,0,.1.88,2.59,2.59,0,0,0,.88,1.64,2.2,2.2,0,0,0,.75.38,4.83,4.83,0,0,0,.88.2c.29,0,.73,0,1.31,0a7,7,0,0,0,1.67-.18,2.5,2.5,0,0,0,.83-.34,4,4,0,0,0,.71-.58,3.27,3.27,0,0,0,.62-.9,8.85,8.85,0,0,0,.48-1.29,14.79,14.79,0,0,0,.38-1.76c.09-.66.15-1.14.16-1.46s0-.58,0-.85a5.37,5.37,0,0,0-.11-.89A2.68,2.68,0,0,0,244.5,74.69Zm-1.22,4.71c-.26,1.63-.66,2.63-1.22,3a2.69,2.69,0,0,1-1.52.38,2.33,2.33,0,0,1-1.47-.36,1.46,1.46,0,0,1-.37-1.17,12.49,12.49,0,0,1,.34-2.82,5.79,5.79,0,0,1,.65-1.83,2.57,2.57,0,0,1,.37-.41,1.18,1.18,0,0,1,.45-.22,3.52,3.52,0,0,1,.51-.1l.69,0a3.84,3.84,0,0,1,.75.06,1.51,1.51,0,0,1,.55.25.93.93,0,0,1,.36.55,5,5,0,0,1,.08,1A11.63,11.63,0,0,1,243.28,79.4ZM174.05,20.46a16.74,16.74,0,0,0-9.31,2.32,14.4,14.4,0,0,0-3.14,2.88,17.75,17.75,0,0,0-2.39,4.05,33.46,33.46,0,0,0-1.75,5.12c-.46,1.82-.9,3.93-1.31,6.31a47.14,47.14,0,0,0-.61,7.78,24.27,24.27,0,0,0,1.4,8.14A9.73,9.73,0,0,0,160.69,62a11.92,11.92,0,0,0,6.61,1.87h3.35c1.61,0,3.46-.1,5.56-.3a26.82,26.82,0,0,0,6.22-1.34l1-6.4q-7.21.52-9.89.52h-3.32c-3.06-.11-5-1.31-5.88-3.61a12.31,12.31,0,0,1-.63-4.33,40.64,40.64,0,0,1,.63-6.52,46.57,46.57,0,0,1,1.75-7.18,12.18,12.18,0,0,1,1-2.5,20.42,20.42,0,0,1,1.11-1.81,4.39,4.39,0,0,1,1.23-1.16c.48-.31.89-.56,1.22-.73a3.92,3.92,0,0,1,1.33-.38q.86-.12,1.32-.15c.31,0,.64,0,1,0h1.05a100,100,0,0,1,12.29.94l1-6.35A48,48,0,0,0,174.05,20.46Zm34.63,43.18q8.26-1.28,9-10.13l.35-3.84a10.05,10.05,0,0,0,.17-2,19.53,19.53,0,0,0-.29-3,7.49,7.49,0,0,0-2.44-4.37,8.35,8.35,0,0,0-5.94-1.92H203.5a11,11,0,0,1-2.5-.23,1.57,1.57,0,0,1-.88-.38,4.86,4.86,0,0,1-.52-.73,1.68,1.68,0,0,1-.2-1.14c.06-.43.1-1,.14-1.59l.29-2.09c.31-1.83.9-3,1.76-3.44a8.3,8.3,0,0,1,3.89-.7h3.26c2,0,5.7.2,11.18.58l1-6.4a53.42,53.42,0,0,0-14.66-1.69H205a20,20,0,0,0-7,1.05q-5.17,2-6.28,9.08l-.58,4.42a13.49,13.49,0,0,0-.18,2.16,16.93,16.93,0,0,0,.18,2.33,8.06,8.06,0,0,0,2.44,4.71q2.14,2.2,7.16,2.21h5.87a4.82,4.82,0,0,1,2.45.5A1.61,1.61,0,0,1,210,48.1c0,.39.05.76.05,1.1a9.64,9.64,0,0,1-.12,1.35l-.35,2.27c-.38,2.44-2.35,3.66-5.88,3.66a122.66,122.66,0,0,1-14.37-.64l-1,6.4Q193.67,64,203.79,64A29.35,29.35,0,0,0,208.68,63.64ZM183.51,74a5,5,0,0,0-1.72.26,2.58,2.58,0,0,0-1.55,2.23l-.14,1.09a3.27,3.27,0,0,0,0,.53,4.13,4.13,0,0,0,0,.58,2,2,0,0,0,.6,1.16,2.39,2.39,0,0,0,1.76.54h1.45a1.23,1.23,0,0,1,.61.13.35.35,0,0,1,.2.26,1.32,1.32,0,0,1,0,.27c0,.09,0,.2,0,.33l-.1.56c-.09.6-.57.91-1.44.91a31.42,31.42,0,0,1-3.54-.16l-.25,1.58a13.33,13.33,0,0,0,3.82.42,7.28,7.28,0,0,0,1.21-.08,2.45,2.45,0,0,0,2.21-2.49l.09-1a2.37,2.37,0,0,0,0-.49,6.15,6.15,0,0,0-.06-.74,1.89,1.89,0,0,0-.61-1.07,2.09,2.09,0,0,0-1.47-.48h-1.48a2.76,2.76,0,0,1-.63,0,.38.38,0,0,1-.21-.1l-.13-.17a.43.43,0,0,1,0-.28q0-.16,0-.39l.07-.53c.08-.44.22-.73.43-.84a2.16,2.16,0,0,1,1-.17h.8c.49,0,1.4.05,2.75.14l.25-1.58a13.38,13.38,0,0,0-3.61-.41Zm10.9,3.49a4.12,4.12,0,0,1,.26-.63c.1-.17.19-.32.27-.44a1,1,0,0,1,.3-.29l.31-.17a.86.86,0,0,1,.32-.1l.33,0h.5a25,25,0,0,1,3,.23l.25-1.56a11.75,11.75,0,0,0-3.59-.52,4.13,4.13,0,0,0-2.29.57,3.74,3.74,0,0,0-.77.71,4.73,4.73,0,0,0-.6,1,8.87,8.87,0,0,0-.43,1.26c-.1.45-.21,1-.31,1.56a10.42,10.42,0,0,0-.15,1.91,6,6,0,0,0,.34,2,2.45,2.45,0,0,0,.92,1.22,3,3,0,0,0,1.63.46h.83c.39,0,.84,0,1.36-.07a7.56,7.56,0,0,0,1.54-.33l.24-1.58c-1.19.08-2,.12-2.44.12h-.81a1.42,1.42,0,0,1-1.45-.88,3.22,3.22,0,0,1-.16-1.07,10.86,10.86,0,0,1,.16-1.61A13.77,13.77,0,0,1,194.41,77.49Zm33.41-3.4h-7.75l-.31,1.84h2.83l-1.36,8.65h2l1.38-8.65h2.91Zm5.7,0h-4.43l-1.67,10.49h2l.66-4.14,1.61.13,1.22,4h2.27l-1.49-4.13.39-.08a1.83,1.83,0,0,0,.48-.22,1.64,1.64,0,0,0,.54-.47,3,3,0,0,0,.42-.84,5.69,5.69,0,0,0,.39-2.18,2.76,2.76,0,0,0-.48-1.73A2.28,2.28,0,0,0,233.52,74.09Zm-.08,4.43a1.17,1.17,0,0,1-.92.35h-2.17l.47-3H233a.76.76,0,0,1,.71.31,1.31,1.31,0,0,1,.13.66A2.51,2.51,0,0,1,233.44,78.52Zm-17.63,2.39-3-6.82h-2l-1.66,10.49h2l1.06-6.74,3,6.74h2l1.66-10.49h-2ZM175.21,74a5,5,0,0,0-1.72.26,2.57,2.57,0,0,0-1.55,2.23l-.14,1.09a3.23,3.23,0,0,0,0,.53,4,4,0,0,0,0,.58,1.93,1.93,0,0,0,.6,1.16,2.39,2.39,0,0,0,1.76.54h1.45a1.16,1.16,0,0,1,.6.13.34.34,0,0,1,.21.26,1.32,1.32,0,0,1,0,.27,2.23,2.23,0,0,1,0,.33l-.08.56c-.1.6-.58.91-1.45.91a31.42,31.42,0,0,1-3.54-.16l-.24,1.58a13.15,13.15,0,0,0,3.81.42,7.08,7.08,0,0,0,1.2-.08,2.45,2.45,0,0,0,2.22-2.49l.09-1a3.34,3.34,0,0,0,0-.49,4.82,4.82,0,0,0-.07-.74,1.82,1.82,0,0,0-.6-1.07,2.09,2.09,0,0,0-1.46-.48h-1.49a2.66,2.66,0,0,1-.62,0c-.11,0-.18,0-.21-.1l-.14-.17a.5.5,0,0,1,0-.28q0-.16,0-.39l.07-.53c.08-.44.22-.73.44-.84a2.09,2.09,0,0,1,.95-.17h.81c.48,0,1.4.05,2.75.14l.26-1.58a13.46,13.46,0,0,0-3.62-.41Z"/></g></g></svg>